<mxfile host="app.diagrams.net" agent="Mozilla/5.0 (Windows NT 10.0; Win64; x64) AppleWebKit/537.36 (KHTML, like Gecko) Chrome/135.0.0.0 Safari/537.36" version="26.2.9">
  <diagram name="Page-1" id="fhRAKGTHHAc35T6EAGJd">
    <mxGraphModel dx="949" dy="511" grid="1" gridSize="10" guides="1" tooltips="1" connect="1" arrows="1" fold="1" page="1" pageScale="1" pageWidth="850" pageHeight="1100" math="0" shadow="0">
      <root>
        <mxCell id="0" />
        <mxCell id="1" parent="0" />
        <mxCell id="p7B1L4sdsP2DGnX8F3GJ-1" value="&lt;div style=&quot;color: rgb(204, 204, 204); background-color: rgb(31, 31, 31); font-family: Consolas, &amp;quot;Courier New&amp;quot;, monospace; font-weight: normal; line-height: 19px; white-space: pre;&quot;&gt;&lt;div&gt;&lt;span style=&quot;color: #6a9955;&quot;&gt;// Fibonacci Series&lt;/span&gt;&lt;/div&gt;&lt;div&gt;&lt;span style=&quot;color: #6a9955;&quot;&gt;// Step 1: Start&lt;/span&gt;&lt;/div&gt;&lt;div&gt;&lt;span style=&quot;color: #6a9955;&quot;&gt;// Step 2: Initialize variables&lt;/span&gt;&lt;/div&gt;&lt;div&gt;&lt;span style=&quot;color: #6a9955;&quot;&gt;// Step 3: Check the condition (i&amp;lt;=n)&lt;/span&gt;&lt;/div&gt;&lt;div&gt;&lt;span style=&quot;color: #6a9955;&quot;&gt;// Step 4: If the condition is true, then go to step 5 otherwise go to step 11&lt;/span&gt;&lt;/div&gt;&lt;div&gt;&lt;span style=&quot;color: #6a9955;&quot;&gt;// Step 5: f = f1&lt;/span&gt;&lt;/div&gt;&lt;div&gt;&lt;span style=&quot;color: #6a9955;&quot;&gt;// Step 6: f1 = f + f2&lt;/span&gt;&lt;/div&gt;&lt;div&gt;&lt;span style=&quot;color: #6a9955;&quot;&gt;// Step 7: f2 = f&lt;/span&gt;&lt;/div&gt;&lt;div&gt;&lt;span style=&quot;color: #6a9955;&quot;&gt;// Step 8: Increment i by 1&lt;/span&gt;&lt;/div&gt;&lt;div&gt;&lt;span style=&quot;color: #6a9955;&quot;&gt;// Step 9: Print value of f&lt;/span&gt;&lt;/div&gt;&lt;div&gt;&lt;span style=&quot;color: #6a9955;&quot;&gt;// Step 10: Go to step 3&lt;/span&gt;&lt;/div&gt;&lt;div&gt;&lt;span style=&quot;color: #6a9955;&quot;&gt;// Step 11: End&lt;/span&gt;&lt;/div&gt;&lt;/div&gt;" style="text;whiteSpace=wrap;html=1;fontSize=14;" vertex="1" parent="1">
          <mxGeometry x="40" y="30" width="560" height="250" as="geometry" />
        </mxCell>
        <mxCell id="p7B1L4sdsP2DGnX8F3GJ-5" value="" style="edgeStyle=orthogonalEdgeStyle;rounded=0;orthogonalLoop=1;jettySize=auto;html=1;fontSize=14;" edge="1" parent="1" source="p7B1L4sdsP2DGnX8F3GJ-2" target="p7B1L4sdsP2DGnX8F3GJ-4">
          <mxGeometry relative="1" as="geometry" />
        </mxCell>
        <mxCell id="p7B1L4sdsP2DGnX8F3GJ-2" value="Start" style="strokeWidth=2;html=1;shape=mxgraph.flowchart.start_1;whiteSpace=wrap;fontSize=14;" vertex="1" parent="1">
          <mxGeometry x="380" y="360" width="100" height="60" as="geometry" />
        </mxCell>
        <mxCell id="p7B1L4sdsP2DGnX8F3GJ-3" value="End" style="strokeWidth=2;html=1;shape=mxgraph.flowchart.start_1;whiteSpace=wrap;fontSize=14;" vertex="1" parent="1">
          <mxGeometry x="380" y="1160" width="100" height="60" as="geometry" />
        </mxCell>
        <mxCell id="p7B1L4sdsP2DGnX8F3GJ-7" value="" style="edgeStyle=orthogonalEdgeStyle;rounded=0;orthogonalLoop=1;jettySize=auto;html=1;fontSize=14;" edge="1" parent="1" source="p7B1L4sdsP2DGnX8F3GJ-4" target="p7B1L4sdsP2DGnX8F3GJ-6">
          <mxGeometry relative="1" as="geometry" />
        </mxCell>
        <mxCell id="p7B1L4sdsP2DGnX8F3GJ-4" value="int n, f, f1 = 0, f2 = 1, i = 1" style="whiteSpace=wrap;html=1;strokeWidth=2;fontSize=14;" vertex="1" parent="1">
          <mxGeometry x="310" y="460" width="240" height="60" as="geometry" />
        </mxCell>
        <mxCell id="p7B1L4sdsP2DGnX8F3GJ-9" value="" style="edgeStyle=orthogonalEdgeStyle;rounded=0;orthogonalLoop=1;jettySize=auto;html=1;fontSize=14;" edge="1" parent="1" source="p7B1L4sdsP2DGnX8F3GJ-6" target="p7B1L4sdsP2DGnX8F3GJ-8">
          <mxGeometry relative="1" as="geometry" />
        </mxCell>
        <mxCell id="p7B1L4sdsP2DGnX8F3GJ-6" value="Enter n" style="shape=parallelogram;perimeter=parallelogramPerimeter;whiteSpace=wrap;html=1;fixedSize=1;strokeWidth=2;fontSize=14;" vertex="1" parent="1">
          <mxGeometry x="370" y="570" width="120" height="60" as="geometry" />
        </mxCell>
        <mxCell id="p7B1L4sdsP2DGnX8F3GJ-11" value="" style="edgeStyle=orthogonalEdgeStyle;rounded=0;orthogonalLoop=1;jettySize=auto;html=1;fontSize=14;" edge="1" parent="1" source="p7B1L4sdsP2DGnX8F3GJ-8" target="p7B1L4sdsP2DGnX8F3GJ-10">
          <mxGeometry relative="1" as="geometry" />
        </mxCell>
        <mxCell id="p7B1L4sdsP2DGnX8F3GJ-19" value="True" style="edgeLabel;html=1;align=center;verticalAlign=middle;resizable=0;points=[];fontSize=14;" vertex="1" connectable="0" parent="p7B1L4sdsP2DGnX8F3GJ-11">
          <mxGeometry x="-0.1303" y="-1" relative="1" as="geometry">
            <mxPoint as="offset" />
          </mxGeometry>
        </mxCell>
        <mxCell id="p7B1L4sdsP2DGnX8F3GJ-21" value="" style="edgeStyle=orthogonalEdgeStyle;rounded=0;orthogonalLoop=1;jettySize=auto;html=1;entryX=1;entryY=0.5;entryDx=0;entryDy=0;fontSize=14;" edge="1" parent="1" source="p7B1L4sdsP2DGnX8F3GJ-8" target="p7B1L4sdsP2DGnX8F3GJ-14">
          <mxGeometry relative="1" as="geometry">
            <mxPoint x="710" y="1130" as="targetPoint" />
            <Array as="points">
              <mxPoint x="711" y="720" />
              <mxPoint x="711" y="1080" />
            </Array>
          </mxGeometry>
        </mxCell>
        <mxCell id="p7B1L4sdsP2DGnX8F3GJ-23" value="False" style="edgeLabel;html=1;align=center;verticalAlign=middle;resizable=0;points=[];fontSize=14;" vertex="1" connectable="0" parent="p7B1L4sdsP2DGnX8F3GJ-21">
          <mxGeometry x="-0.8045" y="1" relative="1" as="geometry">
            <mxPoint as="offset" />
          </mxGeometry>
        </mxCell>
        <mxCell id="p7B1L4sdsP2DGnX8F3GJ-8" value="i&amp;lt;=n" style="rhombus;whiteSpace=wrap;html=1;strokeWidth=2;fontSize=14;" vertex="1" parent="1">
          <mxGeometry x="360" y="680" width="140" height="80" as="geometry" />
        </mxCell>
        <mxCell id="p7B1L4sdsP2DGnX8F3GJ-13" value="" style="edgeStyle=orthogonalEdgeStyle;rounded=0;orthogonalLoop=1;jettySize=auto;html=1;fontSize=14;" edge="1" parent="1" source="p7B1L4sdsP2DGnX8F3GJ-10" target="p7B1L4sdsP2DGnX8F3GJ-12">
          <mxGeometry relative="1" as="geometry" />
        </mxCell>
        <mxCell id="p7B1L4sdsP2DGnX8F3GJ-10" value="f = f1&lt;div&gt;f1 = f + f2&lt;/div&gt;&lt;div&gt;f2 = f&lt;/div&gt;&lt;div&gt;i++&lt;/div&gt;" style="whiteSpace=wrap;html=1;strokeWidth=2;fontSize=14;" vertex="1" parent="1">
          <mxGeometry x="370" y="820" width="120" height="80" as="geometry" />
        </mxCell>
        <mxCell id="p7B1L4sdsP2DGnX8F3GJ-18" value="" style="edgeStyle=orthogonalEdgeStyle;rounded=0;orthogonalLoop=1;jettySize=auto;html=1;entryX=0;entryY=0.5;entryDx=0;entryDy=0;exitX=0;exitY=0.5;exitDx=0;exitDy=0;fontSize=14;" edge="1" parent="1" source="p7B1L4sdsP2DGnX8F3GJ-12">
          <mxGeometry relative="1" as="geometry">
            <mxPoint x="370.0026315789473" y="970" as="sourcePoint" />
            <mxPoint x="360" y="720" as="targetPoint" />
            <Array as="points">
              <mxPoint x="190" y="970" />
              <mxPoint x="190" y="720" />
            </Array>
          </mxGeometry>
        </mxCell>
        <mxCell id="p7B1L4sdsP2DGnX8F3GJ-12" value="Print f" style="shape=parallelogram;perimeter=parallelogramPerimeter;whiteSpace=wrap;html=1;fixedSize=1;strokeWidth=2;fontSize=14;" vertex="1" parent="1">
          <mxGeometry x="370" y="940" width="120" height="60" as="geometry" />
        </mxCell>
        <mxCell id="p7B1L4sdsP2DGnX8F3GJ-16" value="" style="edgeStyle=orthogonalEdgeStyle;rounded=0;orthogonalLoop=1;jettySize=auto;html=1;fontSize=14;" edge="1" parent="1" source="p7B1L4sdsP2DGnX8F3GJ-14" target="p7B1L4sdsP2DGnX8F3GJ-3">
          <mxGeometry relative="1" as="geometry" />
        </mxCell>
        <mxCell id="p7B1L4sdsP2DGnX8F3GJ-14" value="" style="ellipse;whiteSpace=wrap;html=1;strokeWidth=2;fontSize=14;" vertex="1" parent="1">
          <mxGeometry x="390" y="1040" width="80" height="80" as="geometry" />
        </mxCell>
      </root>
    </mxGraphModel>
  </diagram>
</mxfile>
